<?xml version="1.0" encoding="UTF-8"?>
<svg width="266px" height="66px" viewBox="0 0 266 66" version="1.1" xmlns="http://www.w3.org/2000/svg" xmlns:xlink="http://www.w3.org/1999/xlink">
    <!-- Generator: Sketch 48.2 (47327) - http://www.bohemiancoding.com/sketch -->
    <title>logo_magagine_blue</title>
    <desc>Created with Sketch.</desc>
    <defs></defs>
    <g id="pc-header" stroke="none" stroke-width="1" fill="none" fill-rule="evenodd" transform="translate(-100.000000, -14.000000)">
        <g id="main-visual" fill="#162949" fill-rule="nonzero">
            <g id="logo_magagine_blue" transform="translate(100.000000, 14.000000)">
                <path d="M57.615197,7.08124242 C58.4310605,8.55555322 59.610323,9.79678478 61.0409545,10.6870202 C61.0370843,7.29962881 59.3078753,4.14755672 56.4531263,2.32414141 C56.4615392,1.54032065 56.5623205,0.760224021 56.7533838,3.6e-15 C56.3728445,0.289453807 55.9721575,0.551415552 55.5543687,0.783893939 C55.1282167,1.02023308 54.6855181,1.22541892 54.2297424,1.39784343 C54.9778903,1.63746813 55.694932,1.96509759 56.365803,2.37384848 C56.3832547,4.02260857 56.8127482,5.64082918 57.615197,7.08124242 Z" id="Shape"></path>
                <path d="M67.195899,11.2935808 C66.3014227,14.5604 67.1317386,18.0578525 69.3991313,20.5740253 C70.3291576,17.3169361 69.5359563,13.8104444 67.2946414,11.2707424 C67.5182294,10.5201425 67.8298327,9.79862994 68.2229545,9.12124747 C67.7773646,9.29475166 67.3198623,9.43595329 66.8539949,9.54375758 C66.3791864,9.65404146 65.8969523,9.72947473 65.4111465,9.76945455 C66.0642103,10.2051732 66.6633096,10.7167864 67.195899,11.2935808 Z" id="Shape"></path>
                <path d="M60.6735253,37.071399 C60.4691798,36.4014123 60.314269,35.7173351 60.2100404,35.0246768 C59.6471991,36.0037961 58.9708069,36.9130927 58.1948889,37.7337121 C53.4208838,36.7682824 48.483932,38.3012692 45.096404,41.8009596 C49.8601232,42.8175425 54.8135192,41.3368914 58.2378788,37.8727576 C59.3373104,38.1200515 60.4037473,38.4961227 61.415101,38.9931818 C61.1222377,38.3711595 60.8744087,37.7289144 60.6735253,37.071399 Z" id="Shape"></path>
                <path d="M35.2127576,39.2343283 C34.6499163,40.2134477 33.9735241,41.1227442 33.1976061,41.9433636 C28.4235551,40.9770296 23.4861748,42.5101495 20.0991212,46.0106111 C24.8617682,47.0259767 29.8135919,45.5454171 33.2372374,42.0824091 C34.3367574,42.3293955 35.4032299,42.7054793 36.4144596,43.2028333 C35.8232271,41.9452431 35.4177569,40.6084586 35.2107424,39.2343283 L35.2127576,39.2343283 Z" id="Shape"></path>
                <path d="M28.1906263,50.9685556 C28.0092894,50.0711339 27.893671,49.1616775 27.8446919,48.2474293 C26.9894668,49.4514559 25.9949187,50.5501712 24.8817475,51.5207071 C18.7932327,49.6651561 12.1788908,51.038608 7.33246465,55.1647727 C13.4017933,57.0853681 20.0314389,55.7809099 24.9207071,51.7040859 C26.3200099,52.1643089 27.6601596,52.7879384 28.9133939,53.5620556 C28.6108104,52.7159363 28.3692689,51.8492152 28.1906263,50.9685556 Z" id="Shape"></path>
                <path d="M20.3839293,43.4399495 C22.2254532,42.7315162 23.8603818,41.5734418 25.1396869,40.0712879 C26.0672501,40.2104691 26.9751797,40.4584757 27.8446919,40.8101768 C27.2775519,39.8010791 26.8598685,38.7150118 26.604702,37.5859343 C26.1973268,38.4329816 25.6908951,39.2287062 25.0960253,39.9564242 C21.0755721,39.444613 17.0713371,41.0160778 14.4721465,44.1257727 C16.4689851,44.4047895 18.5040022,44.1687081 20.3839293,43.4399495 Z" id="Shape"></path>
                <path d="M41.7653586,43.7623737 C42.8648155,44.0098943 43.9312521,44.3861909 44.9425808,44.8834697 C44.3520301,43.6253823 43.946592,42.2884774 43.7388636,40.9142929 C43.176422,41.8936744 42.4999961,42.8030162 41.7237121,43.6233283 C36.9502978,42.6584343 32.0141973,44.1919776 28.6279141,47.6919192 C33.39061,48.7074753 38.3425242,47.2263065 41.7653586,43.7623737 Z" id="Shape"></path>
                <path d="M16.3153384,49.2630657 C15.7252175,48.0052077 15.320446,46.6684889 15.1136364,45.2945606 C14.5512475,46.2739767 13.8748172,47.1833245 13.0984848,48.003596 C8.32446012,47.0377788 3.38732476,48.5708226 7.1e-15,52.0708434 C2.36889364,52.5794947 4.82851709,52.4738213 7.14505556,51.7638687 C9.41349889,51.0755272 11.4737186,49.8306668 13.1381162,48.1426414 C14.2375477,48.3899354 15.3039847,48.7660066 16.3153384,49.2630657 Z" id="Shape"></path>
                <path d="M51.4938384,45.3805404 C51.2897392,44.7104884 51.1348325,44.0264294 51.0303535,43.3338182 C50.467738,44.3130856 49.7913268,45.2224077 49.015202,46.0428535 C44.241197,45.0774238 39.3042452,46.6104106 35.9167172,50.110101 C40.6793641,51.1254666 45.6311878,49.644907 49.0548333,46.181899 C50.1542649,46.4291929 51.2207018,46.8052641 52.2320556,47.3023232 C51.940337,46.6802092 51.6936312,46.037966 51.4938384,45.3805404 Z" id="Shape"></path>
                <path d="M41.3918838,51.6228081 C36.6244609,50.6303624 31.6798456,52.1344308 28.2725758,55.6134798 C27.1719209,55.3713734 26.1036725,55.0002596 25.0899798,54.5078333 C25.6867272,55.762911 26.0985118,57.097817 26.3125051,58.4709646 C26.8708692,57.4891379 27.5432106,56.5766746 28.3155657,55.7525253 C33.0933206,56.6948627 38.0219876,55.1383083 41.3918838,51.6228081 Z" id="Shape"></path>
                <path d="M53.5835505,48.8412273 C53.1787006,49.8956577 52.650651,50.8985461 52.0103889,51.8290253 C47.1449402,51.611893 42.5041833,53.888849 39.6984848,57.8697778 C44.5610745,58.1377887 49.2251047,55.9097085 52.0721869,51.9586667 C53.1966474,52.0334509 54.3083857,52.2404222 55.3844242,52.575303 C54.6064137,51.4239898 53.9993655,50.1659994 53.5822071,48.8405556 L53.5835505,48.8412273 Z" id="Shape"></path>
                <path d="M68.3653586,29.4353182 C67.918317,29.2411242 67.4861368,29.0143699 67.072303,28.7568838 C67.3369052,29.4967687 67.5127811,30.2654367 67.5962424,31.0467677 C64.9313038,33.1374859 63.5148128,36.4416189 63.8379848,39.8133485 C66.5248356,37.750907 67.9762391,34.4620212 67.6889394,31.0870707 C68.316074,30.6168251 68.9965305,30.2222595 69.7161818,29.9115657 C69.2552109,29.7849629 68.8038032,29.6258142 68.3653586,29.4353182 Z" id="Shape"></path>
                <path d="M60.9865455,40.1068889 C61.0402884,40.8906404 61.0010558,41.6779986 60.8696667,42.4525253 C57.7379956,43.743101 55.4789116,46.5393629 54.8752626,49.8723131 C58.020238,48.6164123 60.3090799,45.845296 60.9482576,42.519697 C61.6794924,42.2368652 62.441572,42.041385 63.2186616,41.9373182 C62.389925,41.4395389 61.6380125,40.8238441 60.9865455,40.1095758 L60.9865455,40.1068889 Z" id="Shape"></path>
                <path d="M73.5839293,11.8967828 C73.2090347,11.7764891 72.8433371,11.6292223 72.489702,11.4561364 C72.7613446,12.0293925 72.9642678,12.6327509 73.0942475,13.2536515 C71.1217206,15.1499895 70.2508317,17.9203782 70.7835404,20.6042525 C72.7763418,18.7290844 73.6766404,15.9679324 73.1721667,13.2785051 C73.638201,12.8498207 74.1531568,12.4775825 74.7063687,12.1695 C74.3261939,12.1054949 73.9510887,12.0143562 73.5839293,11.8967828 Z" id="Shape"></path>
                <path d="M64.7844343,29.5004747 C64.1708435,29.0174848 63.6301398,28.4485017 63.1790303,27.8111061 C63.1435281,28.4448275 63.0330437,29.0721082 62.8498889,29.6798232 C60.2091567,30.3987732 58.116463,32.4132378 57.2974747,35.0246768 C59.9450696,34.3336522 62.0581617,32.34133 62.9036263,29.7389343 C63.5190327,29.5859181 64.150313,29.5058807 64.7844343,29.5004747 Z" id="Shape"></path>
                <path d="M40.8034596,41.4449495 C42.0897003,41.0988911 43.268967,40.436636 44.2339192,39.5184646 C44.8469674,39.6771181 45.4392341,39.9073063 45.9985202,40.2042879 C45.6893449,39.4873511 45.4857131,38.729388 45.3939747,37.9540354 C45.060731,38.4940508 44.6645563,38.9925951 44.2137677,39.439202 C41.5495613,38.8122554 38.74952,39.5860077 36.7852475,41.4919697 C38.1067647,41.8190475 39.4899579,41.8028617 40.8034596,41.4449495 Z" id="Shape"></path>
                <path d="M16.7546414,49.0165455 C17.2510289,48.6221481 17.7921276,48.2875686 18.3667626,48.0197172 C20.6595957,49.513077 23.5552833,49.7353743 26.0491919,48.6094848 C23.7721719,47.09174 20.878823,46.8385593 18.3728081,47.9377677 C17.8498705,47.5807668 17.3709713,47.1631956 16.9460808,46.6937475 C16.9695391,47.0793347 16.9654986,47.4661032 16.9339899,47.8511162 C16.903115,48.2434939 16.8431676,48.6330397 16.7546414,49.0165455 Z" id="Shape"></path>
                <path d="M32.6703081,38.8030859 C33.4913438,37.7545913 34.0370012,36.5173369 34.2575758,35.2040253 C34.8431221,34.9630678 35.4550207,34.7919437 36.0806162,34.6941919 C35.4026177,34.3068851 34.7848329,33.8226142 34.2468283,33.2567172 C34.3038143,33.8889327 34.2857764,34.5256709 34.1930909,35.1536465 C31.6858708,36.2497339 29.9097961,38.5476175 29.4809949,41.2501515 C30.7354992,40.7199845 31.83344,39.877567 32.6703081,38.8030859 Z" id="Shape"></path>
                <path d="M68.1631717,21.1255051 C67.7882771,21.0052113 67.4225796,20.8579445 67.0689444,20.6848586 C67.3408799,21.2579965 67.5438151,21.8613903 67.6734899,22.4823737 C65.700963,24.3787117 64.8300741,27.1491004 65.3627828,29.8329747 C67.3555842,27.9578066 68.2558828,25.1966546 67.7514091,22.5072273 C68.2174434,22.0785429 68.7323992,21.7063047 69.2856111,21.3982222 C68.9054363,21.3342171 68.5303311,21.2430785 68.1631717,21.1255051 Z" id="Shape"></path>
                <path d="M50.2632525,49.3194899 C47.5638409,48.8723747 44.8225758,49.8308555 42.989899,51.8626111 C45.6843427,52.3387059 48.4356925,51.4092677 50.2894495,49.3967374 C50.9119693,49.5136115 51.5184863,49.7036835 52.0963687,49.9629949 C51.7390511,49.2689048 51.4847125,48.5264804 51.3413586,47.7590909 C51.0444924,48.3197434 50.6826315,48.8434835 50.2632525,49.3194899 Z" id="Shape"></path>
                <path d="M40.6550101,54.9834091 C37.9209126,55.1038284 35.4366012,56.6090497 34.0641212,58.9767677 C33.431236,58.9976161 32.798107,58.9435025 32.1779394,58.8155556 C32.6768908,59.4162672 33.0859796,60.0862406 33.392404,60.8045101 C33.560289,60.191594 33.7999601,59.6006457 34.1064394,59.0439394 C36.8385136,58.8944526 39.3064651,57.3641658 40.6550101,54.9834091 Z" id="Shape"></path>
                <path d="M58.5475404,39.2994848 C58.4574709,39.9010583 58.299737,40.4905327 58.0773384,41.056697 C55.500789,41.8554333 53.4166392,43.7648773 52.3959545,46.2618333 C54.9794043,45.4865491 57.0808721,43.5967311 58.1250303,41.1097626 C58.7087056,40.9441483 59.309222,40.8450011 59.9151566,40.8142071 C59.378067,40.388232 58.9150621,39.8764299 58.5448535,39.2994848 L58.5475404,39.2994848 Z" id="Shape"></path>
                <path d="M76.1633232,2.45512626 C75.7770963,2.46031556 75.390993,2.43786769 75.0079697,2.38795455 C74.6175377,2.33715557 74.2313759,2.25767809 73.8526162,2.15016667 C74.2232938,2.66550984 74.531738,3.2228739 74.7715253,3.81065152 C73.1701942,6.02944982 72.8096568,8.9112175 73.815,11.4561364 C75.4395547,9.2544342 75.8307086,6.37685807 74.852803,3.82139899 C75.2341424,3.31580855 75.6740495,2.85718679 76.1633232,2.45512626 Z" id="Shape"></path>
                <path d="M39.2027576,60.7467424 C39.2063388,60.3630276 39.2552658,59.9810813 39.3485202,59.6088535 C38.9720154,59.8953627 38.5559142,60.1257003 38.1132323,60.2926616 C38.4795263,60.4101977 38.8305968,60.5707386 39.159096,60.7709242 C39.1793254,62.428699 40.041997,63.9621688 41.4483081,64.8401869 C41.4461638,63.1822204 40.5998565,61.6394754 39.2027576,60.7467424 Z" id="Shape"></path>
                <path d="M45.2569444,63.5397424 C44.4703204,62.9087536 43.5383491,62.4845635 42.5458939,62.305798 C42.3683622,61.8603057 42.2441277,61.3953846 42.1757778,60.9207172 C42.0274302,61.1726913 41.8613195,61.4137763 41.6787071,61.6421414 C41.4935182,61.8749733 41.2914582,62.0938717 41.0741616,62.2970657 C41.553224,62.2593448 42.0350683,62.2785103 42.5096212,62.3541616 C43.3181503,64.2618193 45.04234,65.6265391 47.0846869,65.9753889 C46.6930375,65.0209694 46.0638658,64.1825361 45.2569444,63.5397424 Z" id="Shape"></path>
                <path d="M69.8444798,12.4482626 C69.8367393,13.4791026 70.0924635,14.4948319 70.587399,15.3991162 C71.6025781,13.5930289 71.6278953,11.3942356 70.6545707,9.56525253 C70.8941073,9.14979246 71.1817973,8.7640264 71.5116818,8.41594444 C71.2223461,8.45591823 70.9305296,8.47522301 70.6384495,8.47371212 C70.3402063,8.47185019 70.042504,8.44805197 69.7477525,8.4025101 C70.0745407,8.75511986 70.3584153,9.1451938 70.5934444,9.56458081 C70.107131,10.4482747 69.8496575,11.4396057 69.8444798,12.4482626 Z" id="Shape"></path>
                <path d="M66.1695152,30.9661616 C65.90883,30.8330204 65.658078,30.6812671 65.4192071,30.5120808 C65.1760722,30.3397745 64.9457418,30.1500775 64.7300253,29.9444798 C64.7958475,30.4206423 64.8053169,30.9029035 64.7582374,31.3812828 C62.901318,32.3007947 61.64074,34.1029223 61.4137576,36.1625657 C63.2801414,35.2625389 64.5596349,33.4739315 64.8086162,31.4168838 C65.2429375,31.2136269 65.6997299,31.0623397 66.1695152,30.9661616 Z" id="Shape"></path>
                <path d="M55.8653737,34.4080404 C56.3447841,34.4172572 56.8214258,34.4830942 57.2853838,34.6041818 C56.9313976,34.1305208 56.6483178,33.6078075 56.4450657,33.0525152 C56.2936205,33.5085762 56.0891374,33.9452728 55.8358182,34.3536313 C53.7638438,34.3583914 51.8369767,35.4181557 50.7233788,37.1654394 C52.7953201,37.1827939 54.7333835,36.1435058 55.8653737,34.4080404 Z" id="Shape"></path>
                <path d="M34.190404,49.6002677 C32.3951749,49.2094793 30.5245575,49.7604354 29.2277576,51.0619242 C31.018863,51.4702366 32.8946219,50.938645 34.2051818,49.6513182 C34.6186297,49.7502619 35.0188649,49.8979543 35.3974798,50.0912929 C35.1812416,49.6138355 35.0357412,49.1074126 34.9655657,48.5879899 C34.7478982,48.9547336 34.4877117,49.2945092 34.190404,49.6002677 Z" id="Shape"></path>
                <path d="M23.8459596,54.5649293 C23.6949272,55.0211548 23.490422,55.4578987 23.2367121,55.8660455 C21.1645424,55.8707015 19.2375348,56.9307962 18.1242727,58.6785253 C20.1962199,58.6952304 22.1340854,57.6557952 23.2662677,55.9204545 C23.745682,55.9296212 24.2223296,55.995459 24.6862778,56.116596 C24.3325971,55.6427396 24.0495423,55.1200725 23.8459596,54.5649293 Z" id="Shape"></path>
                <path d="M33.1371515,34.3650505 C33.6783265,33.5138427 33.9979171,32.540754 34.0668081,31.5344343 C34.4902059,31.309291 34.9386419,31.1347865 35.4028535,31.0145253 C35.1361541,30.8947085 34.8782454,30.7562145 34.6310505,30.6000758 C34.3795922,30.439999 34.1398544,30.2622159 33.9136566,30.0680758 C34.0036683,30.5400167 34.0374896,31.0209548 34.0144141,31.5008485 C32.2065716,32.5133341 31.0389474,34.3769251 30.9164545,36.4453586 C31.8218262,35.9524339 32.5862346,35.2363501 33.1371515,34.3650505 Z" id="Shape"></path>
                <path d="M69.7914141,21.8308081 C69.4933926,21.828974 69.1959116,21.8051755 68.9013889,21.7596061 C69.2277669,22.112396 69.5113993,22.5024468 69.7464091,22.9216768 C68.7507291,24.7385372 68.7484508,26.9372923 69.7403636,28.7562121 C70.7555428,26.9501249 70.7808599,24.7513316 69.8075354,22.9223485 C70.0470822,22.5067219 70.3350156,22.1209317 70.6653182,21.7730404 C70.3757551,21.812994 70.0837168,21.8322986 69.7914141,21.8308081 Z" id="Shape"></path>
                <path d="M63.2710556,10.7588939 C63.6048714,11.7351277 64.1829771,12.609686 64.9503485,13.2993283 C65.3118703,11.2590545 64.6096281,9.17511162 63.0870051,7.76975253 C63.1760204,7.29855985 63.3203174,6.83951487 63.516904,6.40213636 C63.2568412,6.53583008 62.987452,6.65054499 62.7108434,6.74538384 C62.4287982,6.84194757 62.1400909,6.91782867 61.8470152,6.97242424 C62.2705853,7.19834014 62.6660451,7.47340342 63.0252071,7.79191919 C62.8583192,8.78593224 62.942836,9.80590632 63.2710556,10.7588939 Z" id="Shape"></path>
                <path d="M64.1301818,13.2476061 C63.8975462,13.4249314 63.652403,13.5852173 63.3966667,13.7272121 C63.1361069,13.8728286 62.8653727,13.9994407 62.5865758,14.1060606 C63.0443404,14.2528171 63.4831161,14.4532649 63.8937374,14.7032172 C63.9179922,16.7749249 64.9960516,18.6915312 66.7539091,19.7881162 C66.7525059,17.7150066 65.6946065,15.7855684 63.9474747,14.6696313 C63.9525458,14.1901081 64.0138674,13.7128363 64.1301818,13.2476061 Z" id="Shape"></path>
                <path d="M95.5828385,38.3406008 C94.9685707,44.3661278 97.9990993,50.1791968 103.290793,53.1257674 L100.992849,56.0746058 C97.2283157,53.67268 94.488182,49.9601328 93.3023587,45.6549291 C91.1085304,50.7102725 88.1832021,53.9909392 83.8600304,56.2734341 L81.9651163,53.6134341 C87.817788,50.8204341 91.4652122,45.3674341 92.0603537,38.5622674 L92.3223233,35.5697674 L95.8253284,35.5697674 L95.5828385,38.3406008 Z" id="Shape"></path>
                <path d="M110.354399,47.1182727 C109.58132,48.8912189 108.624013,50.5779889 107.498258,52.1507778 L106.356338,48.9802727 C108.030587,47.0302997 109.363849,44.8118308 110.29999,42.4182677 L107.28398,42.4182677 L107.529157,39.6259394 L111.009323,39.6259394 L111.394889,35.2147727 L114.343727,35.2147727 L113.958162,39.6259394 L116.510687,39.6259394 L116.266182,42.4182677 L113.713657,42.4182677 L113.60148,43.7046061 C114.748662,44.6181383 115.809915,45.6346474 116.771985,46.7414394 L115.069182,49.2267929 C114.566515,48.3483227 113.986304,47.5165595 113.33548,46.7414394 L112.501207,56.2737778 L109.552369,56.2737778 L110.354399,47.1182727 Z M122.373434,45.5666061 C120.800067,48.4792005 118.644417,51.0370345 116.040485,53.0811061 L114.191919,50.8872778 C116.737056,49.1582778 119.531399,45.8547727 121.339662,42.4182677 L116.993652,42.4182677 L117.238828,39.6259394 L122.892672,39.6259394 L123.278237,35.2147727 L126.227076,35.2147727 L125.840838,39.6259394 L128.523005,39.6259394 L128.2785,42.4182677 L125.597677,42.4182677 L124.628389,53.501601 C124.461803,55.4086061 123.767247,55.9869545 121.639247,55.9869545 C120.636893,55.986157 119.635443,55.9267204 118.64003,55.8089495 L118.315591,52.9272828 C119.217452,53.0797989 120.130794,53.1541878 121.045449,53.1496212 C121.599616,53.1496212 121.717167,53.0387879 121.770904,52.4624545 L122.373434,45.5666061 Z" id="Shape"></path>
                <path d="M130.45352,53.7682727 C131.020459,51.9553214 131.413618,50.0925405 131.627682,48.2051111 L133.894056,48.4066263 C133.687783,50.5610022 133.278456,52.6910754 132.67153,54.7684596 L130.45352,53.7682727 Z M131.253535,44.6577727 C131.766056,44.6362778 131.809717,44.6362778 132.743404,44.6141111 C133.299586,44.0821111 133.616636,43.7717778 134.10296,43.2612727 C133.401775,42.0639806 132.57881,40.9423077 131.647162,39.9141061 L133.359369,37.8317828 C133.644848,38.1206212 133.703288,38.2086162 133.8645,38.3859495 C134.697381,37.3326277 135.454087,36.2212516 136.128859,35.0602778 L138.407995,36.3687828 C137.574394,37.5442879 136.631303,38.6962828 135.324813,40.2036162 C135.575794,40.5280565 135.805123,40.8686834 136.011308,41.2232828 C137.092773,40.0047879 138.080197,38.8514495 139.101207,37.5879495 L141.037096,39.0281111 C139.447146,40.9633359 137.724513,42.7856242 135.881667,44.4817828 C136.748182,44.4596162 137.374222,44.3931162 138.291788,44.3044495 C138.183641,43.7731212 138.068778,43.3069495 137.933763,42.8192828 L139.926076,42.0877828 C140.414275,43.6537748 140.741306,45.2655215 140.902081,46.8979495 L138.768707,47.7187879 C138.72303,47.2297778 138.685414,46.8979495 138.645783,46.5876162 L138.353586,46.6326212 C138.135705,46.6508059 137.918902,46.6801763 137.704035,46.7206162 L137.457515,46.7427828 L137.256,46.7871162 L136.425086,56.2751212 L133.75904,56.2751212 L134.565101,47.0974495 C133.423182,47.2089545 132.822667,47.2526162 131.550434,47.3412828 L131.253535,44.6577727 Z M137.69396,53.6587828 C137.72296,51.9251983 137.630259,50.1917158 137.41654,48.4711111 L139.571409,47.9169444 C139.846403,49.5806201 139.995499,51.2626706 140.017429,52.9487778 L137.69396,53.6587828 Z M150.434419,56.2744495 L147.552753,56.2744495 L147.64948,55.1654444 L143.326308,55.1654444 L143.228909,56.2744495 L140.388889,56.2744495 L141.243985,46.4989495 L151.286828,46.4989495 L150.434419,56.2744495 Z M146.978434,38.7621111 C146.263056,42.1314444 144.734227,44.3924444 142.212601,45.8554444 L140.60451,43.7059495 C142.458004,42.664121 143.753497,40.8533833 144.141101,38.7627828 L141.436096,38.7627828 L141.669182,36.1027828 L152.618172,36.1027828 C151.836293,44.7927879 151.579697,45.4356212 148.874692,45.4356212 C148.057081,45.426026 147.240518,45.37401 146.428298,45.2797828 L146.213348,42.6647879 C146.836416,42.7849011 147.469698,42.8440674 148.104232,42.8414495 C148.703404,42.8414495 148.894172,42.6862828 149.080909,42.0662879 C149.215253,41.5342879 149.42147,40.2036162 149.592086,38.7627828 L146.978434,38.7621111 Z M143.552677,52.5497778 L147.875848,52.5497778 L148.182152,49.0474444 L143.85898,49.0474444 L143.552677,52.5497778 Z" id="Shape"></path>
                <path d="M196.410101,37.6974394 L198.149177,39.3599394 C196.089744,43.3065028 193.108496,46.6979088 189.4585,49.2462727 C190.426386,50.3473021 191.331717,51.501784 192.170222,52.7042727 L189.432975,54.8537677 C186.975706,51.194378 184.027283,47.8899743 180.670424,45.0332626 L182.983146,42.9274293 C184.450848,44.146596 185.925939,45.5202576 187.637475,47.2499293 C190.287399,45.343596 192.876869,42.5734343 193.897207,40.5777626 L179.466035,40.5777626 L179.717929,37.696096 L196.410101,37.6974394 Z" id="Shape"></path>
                <path d="M207.418874,39.8261111 L207.436338,39.624596 L207.547843,38.605601 C207.652631,37.6517626 207.749359,36.8094293 207.84004,35.767596 L211.165712,35.767596 C211.02398,37.3857626 210.927924,38.228096 210.722379,39.8247677 L218.503551,39.8247677 C217.849298,46.5419394 217.105707,51.2399293 216.501833,52.8144343 C215.846909,54.4762626 214.750667,55.0982727 212.466828,55.0982727 C211.36099,55.0902167 210.257261,55.0004096 209.164667,54.8295859 L208.950389,51.7034141 C210.039958,51.940041 211.149374,52.0736297 212.26397,52.1024141 C213.061298,52.1024141 213.250722,51.9680707 213.479106,51.1277525 C214.146231,48.3576113 214.607615,45.5419335 214.859485,42.7037475 L210.291808,42.7037475 C209.904908,45.1848884 209.017995,47.5615694 207.684874,49.6896061 C206.009176,52.0357868 203.77973,53.9315772 201.194742,55.2084343 L199.250793,52.5954545 C201.511913,51.5808619 203.484773,50.0191485 204.991288,48.0512879 C205.996573,46.4141902 206.681987,44.6011576 207.011141,42.7084495 L200.89247,42.7084495 L201.144364,39.8274545 L207.418874,39.8261111 Z M215.957071,39.2954545 C215.536625,37.9653066 214.939028,36.697813 214.180379,35.5271212 L216.05447,34.8842879 C216.793698,36.0462647 217.399178,37.2880964 217.859374,38.5861212 L215.957071,39.2954545 Z M219.388874,39.0939394 C218.949442,37.7684227 218.361538,36.496845 217.636364,35.3034394 L219.393576,34.7271061 C220.182661,35.8216121 220.794685,37.0334195 221.207212,38.3181061 L219.388874,39.0939394 Z" id="Shape"></path>
                <path d="M230.368091,47.0961061 C228.125243,46.1087518 225.821998,45.2647224 223.472242,44.5691061 L224.912404,41.7982727 C227.227042,42.4251583 229.483924,43.2485396 231.65846,44.2594444 L230.368091,47.0961061 Z M224.162768,51.8841061 C229.165717,51.4636111 232.169636,50.5769444 234.405111,48.8479444 C236.862321,46.7818592 238.641094,44.0242919 239.510162,40.9337727 L242.260172,42.7071061 C240.788439,47.0961061 238.237258,50.4211061 234.970025,52.2837778 C232.445712,53.7682727 229.337005,54.5891111 224.755222,55.0096061 L224.162768,51.8841061 Z M232.899121,41.7317727 C230.688265,40.7134964 228.407597,39.8542051 226.074475,39.1604394 L227.203631,36.3896061 C229.576921,36.9739272 231.888953,37.7836671 234.108212,38.8077879 L232.899121,41.7317727 Z M239.146091,39.7367727 C238.815266,38.4415342 238.296332,37.2017956 237.605843,36.0571061 L239.473889,35.4807727 C240.161562,36.6037658 240.682008,37.8209299 241.018838,39.0939394 L239.146091,39.7367727 Z M242.424742,39.004601 C242.114907,37.7126356 241.601815,36.4780868 240.904646,35.347101 L242.680667,34.8157727 C243.397838,35.8844846 243.924205,37.0694925 244.236364,38.3181061 L242.424742,39.004601 Z" id="Shape"></path>
                <path d="M247.157662,51.7954394 C256.618798,51.0867778 260.576556,47.9162727 263.105571,39.0267677 L265.707803,40.9566111 C262.840242,50.4211061 258.179197,54.0342727 247.562707,55.0096061 L247.157662,51.7954394 Z M255.032874,42.3531111 C252.663194,41.2832355 250.19869,40.4372217 247.671525,39.8261111 L249.034439,36.9216061 C251.609017,37.3770344 254.105283,38.198115 256.44751,39.3599394 L255.032874,42.3531111 Z" id="Shape"></path>
                <path d="M88.0500303,18.5649192 C86.7368232,18.0873283 85.6775253,17.3712778 85.6627475,16.5061061 C85.6272155,15.9258594 85.8422443,15.3582378 86.2533092,14.9471728 C86.6643741,14.5361079 87.2319958,14.3210791 87.8122424,14.3566111 C89.11,14.3713889 89.7817172,14.5957424 90.1397424,15.1922273 C90.6778326,15.9176917 90.9705521,16.7958501 90.9753586,17.6990758 L91.273601,17.6990758 C91.273601,17.6990758 91.2104596,14.3982576 91.8667273,13.2046162 L91.5422879,13.0138485 C91.5422879,13.0138485 91.0351414,14.3572828 90.3486465,14.2672727 C89.4891341,14.0392845 88.6107518,13.8895525 87.7242475,13.8199091 C87.6866313,13.8199091 87.6476717,13.8199091 87.6033384,13.8199091 C86.5715808,13.8635707 83.932404,14.3613131 83.932404,16.7707626 C83.932404,19.3071667 86.0516717,19.6356364 87.3346515,20.4114697 C88.6176313,21.187303 89.6923788,21.6346667 89.6923788,23.0983384 C89.7087577,23.7680829 89.4499072,24.4152704 88.9761847,24.8889928 C88.5024623,25.3627153 87.8552748,25.6215658 87.1855303,25.6051869 C86.2886422,25.5693291 85.4542805,25.1360223 84.9090808,24.4229646 C84.576526,24.0277443 84.3483527,23.5554627 84.2454242,23.049303 C84.0298091,22.5867945 83.5436296,22.3129134 83.0363333,22.3681818 C82.9406776,22.3656629 82.8451704,22.3772052 82.7528687,22.4024394 L82.7763788,22.7161313 C82.9755642,22.6750655 83.1824054,22.6930416 83.3715202,22.7678535 C83.6724495,22.9451869 83.7456667,23.5443586 83.8565,24.0400859 C84.0228456,24.4794872 84.0916074,24.9498175 84.0580152,25.4184495 C84.0078087,25.6513601 83.9020305,25.8686779 83.749697,26.0518788 L83.9592727,26.2829495 C84.2652608,26.0303782 84.6240472,25.8497225 85.0091667,25.7543081 C85.4867576,25.6945253 86.4117121,26.0525505 87.217101,26.0525505 C88.0224899,26.0525505 91.6336414,26.0229949 91.6336414,22.9787727 C91.6336414,19.9345505 89.3632374,19.0425101 88.0500303,18.5649192 Z M89.1986667,25.2820909 C89.8517857,24.7775961 90.2192316,23.9873494 90.1840758,23.1628232 C90.2774444,20.8474141 87.2466566,19.8908889 86.7630202,19.6524293 C86.3996212,19.4724091 84.3945455,18.8618182 84.3945455,16.8177828 C84.3360293,15.6913187 85.0887041,14.683141 86.1853434,14.4190808 C84.0217424,16.3139949 85.6298333,18.4312475 87.1996364,19.059303 C88.9232626,19.7498283 90.9451313,20.6673939 90.9451313,22.9391414 C90.972825,24.0289454 90.2512098,24.9961873 89.1986667,25.2800758 L89.1986667,25.2820909 Z" id="Shape"></path>
                <path d="M103.672157,24.4142323 C103.508258,24.0562071 100.554045,16.4013182 100.390146,15.9089495 C100.275484,15.539891 100.238658,15.1510528 100.282,14.7670303 C100.279129,14.3388376 100.505334,13.9417634 100.875126,13.7258687 C101.076641,13.6136919 101.669096,13.6808636 101.233152,13.4014293 C100.495479,13.1599272 99.6912226,13.4861152 99.3301768,14.1732323 C99.0440253,14.7777778 94.6530101,24.8266667 94.4514949,25.1175202 C94.2499798,25.4083737 93.2316566,25.5205505 93.2316566,25.5205505 L93.2316566,25.8953687 C93.866599,25.8175122 94.5056809,25.7782566 95.1453788,25.7778182 C95.8109163,25.7803309 96.4758079,25.8195741 97.1370202,25.8953687 L97.1370202,25.4869646 C97.1370202,25.4869646 96.4209697,25.3526212 95.9279293,25.2337273 C95.4348889,25.1148333 95.5396768,24.2933232 95.6444646,24.0246364 C95.6800657,23.9326111 96.0542121,23.0640808 96.5297879,21.9658232 L100.496949,21.9658232 C100.934909,23.199096 101.291591,24.2127172 101.329207,24.3531061 C101.433323,24.7413586 101.448773,25.1437172 101.180086,25.3082879 C100.793245,25.4239232 100.389845,25.4743198 99.9864444,25.4574091 L99.9864444,25.8953687 C99.9864444,25.8953687 101.209641,25.7778182 102.597409,25.7778182 C103.985177,25.7778182 105.059253,25.8953687 105.059253,25.8953687 L105.059253,25.4426313 C103.926066,25.3096313 103.836727,24.7722576 103.672157,24.4142323 Z M96.7689192,21.4150152 C97.6421515,19.3998636 98.7034646,16.9534697 98.7034646,16.9534697 C98.7034646,16.9534697 99.5646061,19.3474697 100.300808,21.4150152 L96.7689192,21.4150152 Z M102.031152,25.2048434 C102.09673,24.960634 102.09673,24.7034468 102.031152,24.4592374 C101.911586,24.1603232 99.0621616,16.1628586 99.0621616,16.1628586 L99.3308485,15.4468081 C99.3308485,15.4468081 102.706227,24.4693131 102.807657,24.697697 C102.878582,24.8732694 102.963491,25.0428633 103.061566,25.2048434 L102.031152,25.2048434 Z" id="Shape"></path>
                <path d="M117.617677,25.0631111 C116.856621,24.4928232 113.331449,20.3852727 113.331449,20.3852727 C113.331449,20.3852727 116.152662,19.9379091 116.152662,17.1180404 C116.152662,14.2981717 113.097692,14.0281414 112.391045,14.0281414 L108.415152,14.0281414 C107.864225,13.9830451 107.317883,13.8931862 106.781535,13.7594545 C105.338015,13.5196515 105.722909,15.2701465 105.722909,15.2701465 C108.124298,14.4083333 108.292227,16.1205404 108.292227,16.2992172 L108.292227,24.481404 C108.292227,25.3875505 106.680106,25.4997273 106.680106,25.4997273 L106.680106,25.8967121 C106.680106,25.8967121 108.249909,25.7791616 109.339434,25.7791616 C110.42896,25.7791616 112.29499,25.8967121 112.29499,25.8967121 L112.29499,25.4883081 C112.29499,25.4883081 110.471278,25.4661414 110.448439,24.4807323 L110.448439,20.2287626 L110.807136,20.2287626 C110.807136,20.2287626 114.936182,24.9401869 115.159864,25.1860354 C115.499184,25.5694115 115.962694,25.8210244 116.46904,25.8967121 L118.618535,25.8967121 L118.618535,25.5252525 C118.27573,25.3919336 117.941475,25.2375933 117.617677,25.0631111 Z M109.851283,25.1893939 L108.586439,25.1893939 C108.723173,24.9783892 108.797028,24.7328269 108.799374,24.481404 L108.799374,15.7302727 C108.758487,15.371408 108.627467,15.0287221 108.41851,14.7341162 L109.851283,14.7341162 C109.727395,14.9327472 109.657901,15.1604562 109.649768,15.3944141 L109.649768,24.4142323 C109.640574,24.6864911 109.710074,24.955627 109.849939,25.1893939 L109.851283,25.1893939 Z M115.207556,17.2758939 C115.191829,18.5489536 114.257964,19.6240205 112.999621,19.8176717 C114.033851,19.3789111 114.670933,18.3272114 114.580843,17.2073788 C114.662746,16.2271593 114.205559,15.279854 113.387202,14.7341162 C114.535886,15.0190818 115.307075,16.0966966 115.206212,17.2758939 L115.207556,17.2758939 Z M110.455157,19.7363939 L110.455157,15.5717475 C110.455157,15.1015455 110.634505,14.732101 111.328389,14.732101 L112.301707,14.732101 C113.406527,14.9953398 114.170818,16.0033254 114.126091,17.1381919 C114.196735,18.3965385 113.318244,19.5101388 112.078025,19.7343788 L110.455157,19.7363939 Z M115.849045,25.1893939 C115.325106,24.8669697 111.447955,20.2361515 111.447955,20.2361515 L112.152586,20.2361515 C112.152586,20.2361515 115.807399,24.303399 116.403212,24.9381717 C116.650687,25.1714407 116.931663,25.3663804 117.236813,25.5165202 C116.751322,25.5508073 116.266875,25.4367233 115.847702,25.1893939 L115.849045,25.1893939 Z" id="Shape"></path>
                <path d="M123.939207,14.1362879 L123.939207,14.1698737 C123.964732,14.1510657 123.939207,14.1362879 123.939207,14.1362879 Z" id="Shape"></path>
                <path d="M123.939207,24.481404 L123.939207,14.1732323 C123.570195,14.2672061 123.187507,14.2954017 122.808707,14.2565253 C121.465273,14.2565253 120.167515,14.1396465 120.167515,14.1396465 L120.167515,14.5366313 C120.167515,14.5366313 121.958313,14.6488081 121.958313,15.5549545 L121.958313,24.481404 C121.958313,25.3875505 120.167515,25.4997273 120.167515,25.4997273 L120.167515,25.8967121 C120.167515,25.8967121 121.600288,25.7791616 122.808707,25.7791616 C123.289286,25.7368424 123.773562,25.776593 124.240808,25.8967121 L124.240808,25.4883081 C124.240808,25.4883081 123.961374,25.4661414 123.939207,24.481404 Z M122.204162,25.2202929 C122.357059,25.0924631 122.435538,24.8963914 122.413066,24.6983687 L122.413066,15.5361465 C122.420683,15.3076993 122.385367,15.0798511 122.308949,14.8644293 L123.166061,14.8644293 L123.166061,24.2798889 C123.166061,24.5035707 123.270177,25.2202929 123.270177,25.2202929 L122.204162,25.2202929 Z" id="Shape"></path>
                <path d="M138.721687,24.5176768 L138.721687,15.4447929 C138.744525,14.4600556 140.423146,14.4822222 140.423146,14.4822222 L140.423146,14.0738182 C138.814384,14.1524091 138.811025,14.1483788 137.505879,14.1483788 C136.118111,14.1483788 134.812965,14.0288131 134.812965,14.0288131 L134.812965,14.4264697 C134.812965,14.4264697 136.559429,14.5386465 136.559429,15.4447929 L136.559429,24.5176768 C136.559429,25.4238232 134.947308,25.536 134.947308,25.536 L134.947308,25.9329848 C134.947308,25.9329848 136.25447,25.8295404 137.687242,25.8295404 C139.120015,25.8295404 140.564879,25.9329848 140.564879,25.9329848 L140.564879,25.5252525 C140.564879,25.5252525 138.744525,25.5044293 138.721687,24.5176768 Z M138.03049,25.2176061 L136.901333,25.2176061 C137.054231,25.0897763 137.13271,24.8937046 137.110237,24.6956818 L137.110237,15.5361465 C137.117855,15.3076993 137.082538,15.0798511 137.006121,14.8644293 L138.03049,14.8644293 C137.960148,15.0889734 137.924804,15.3230107 137.925702,15.5583131 L137.925702,24.2798889 C137.925702,24.5035707 138.03049,25.2196212 138.03049,25.2196212 L138.03049,25.2176061 Z" id="Shape"></path>
                <path d="M133.365414,20.1615909 C133.365414,15.5213687 128.963652,14.6259697 127.158076,14.6259697 C126.178341,14.6909073 125.246855,14.1933853 124.756015,13.3429899 L124.472551,13.3429899 L124.472551,16.4013182 L124.756015,16.4013182 C125.331305,15.6346686 126.20371,15.1467458 127.158076,15.0578838 C128.575399,15.0578838 130.933126,16.6700051 130.933126,19.6833283 C130.933126,21.572197 130.370227,22.3359394 129.623278,22.7497172 C129.710072,22.4829114 129.676224,22.1915227 129.530581,21.9517172 C129.217561,21.4593485 128.142813,21.9664949 128.426278,22.3097424 C128.598632,22.5418957 128.716001,22.8101668 128.769525,23.0943081 C128.57204,23.1567778 128.371197,23.2145455 128.17304,23.279702 C126.845056,23.7122879 124.621672,23.8466313 124.621672,24.9509343 C124.621672,26.0552374 128.288576,25.8167778 128.951561,25.6985556 C128.951561,25.6985556 129.43654,25.6166061 129.603798,25.5642121 C129.81147,25.675453 130.040458,25.7411728 130.275515,25.7569949 C130.728924,25.771101 131.906444,25.5024141 130.926409,24.9388434 C132.539917,23.9014151 133.471412,22.0769054 133.365414,20.1615909 Z M125.275253,24.7124747 C126.220429,24.0434734 127.376723,23.7412085 128.528379,23.8620808 C128.528379,23.8620808 126.158561,25.2196212 125.275253,24.7124747 Z M126.648242,25.2196212 C129.572899,24.3094444 131.7365,23.3247071 131.7365,20.1145707 C131.7365,16.9044343 130.184162,15.8773788 130.184162,15.8773788 C130.184162,15.8773788 132.452551,16.8023333 132.452551,20.2045808 C132.455237,25.6374293 126.650929,25.2196212 126.650929,25.2196212 L126.648242,25.2196212 Z" id="Shape"></path>
                <path d="M154.366652,14.1060606 C153.202566,14.1060606 151.97198,14.0247828 151.97198,14.0247828 L151.97198,14.4224394 C151.97198,14.4224394 154.045571,14.5339444 154.045571,15.4407626 L154.045571,22.2573485 L146.242232,14.0288131 L144.815505,14.0288131 C144.264348,13.9837914 143.717777,13.8939318 143.181217,13.7601263 C141.737697,13.5203232 142.123263,15.2708182 142.123263,15.2708182 C144.524652,14.4090051 144.317091,16.1212121 144.317091,16.2998889 L144.317091,24.481404 C144.317091,25.3875505 142.70497,25.4997273 142.70497,25.4997273 L142.70497,25.8967121 C142.70497,25.8967121 143.66754,25.802 144.674444,25.802 C145.681348,25.802 146.846106,25.8967121 146.846106,25.8967121 L146.846106,25.4883081 C146.846106,25.4883081 145.004929,25.4493485 144.982763,24.4646111 L144.976045,24.263096 L144.976045,15.6785505 C146.696313,17.5163687 153.238167,24.5015556 153.604924,24.9287677 C153.885772,25.2921759 154.084258,25.7122966 154.186631,26.1600253 L154.746172,26.1600253 L154.763636,25.5252525 L154.769682,25.5319697 L154.769682,15.4421061 C154.791848,14.4573687 156.616232,14.4345303 156.616232,14.4345303 L156.616232,14.0261263 C156.616232,14.0261263 155.530737,14.1100909 154.366652,14.1060606 Z M144.976717,14.905404 L144.976717,14.6709747 L145.85398,14.6709747 L154.045571,23.403298 L154.045571,24.5391717 L144.976717,14.905404 Z" id="Shape"></path>
                <path d="M168.209399,22.2096566 C167.578101,24.0997512 165.766457,25.3390801 163.776066,25.2424596 C163.463045,25.2424596 162.209621,25.5447323 162.209621,24.1905505 L162.209621,20.1165859 L165.555444,20.1165859 C166.775283,20.2287626 166.685944,21.7508737 166.685944,21.7508737 L167.144727,21.7508737 C167.028325,20.6509043 167.062222,19.5402078 167.245485,18.4493838 L166.808869,18.4493838 C166.685944,19.4119545 165.947056,19.3689646 165.555444,19.3689646 L162.209621,19.3689646 L162.209621,15.5623434 C162.209621,15.2264848 162.399717,14.7791212 163.653141,14.7791212 C164.906566,14.7791212 166.931793,14.8798788 166.998965,17.4424798 L167.547086,17.4424798 C167.493737,16.3152569 167.528323,15.1855904 167.65053,14.0637424 L160.418823,14.0288131 L160.28448,14.0288131 C159.733554,13.9837169 159.187212,13.893858 158.650864,13.7601263 C157.207343,13.5203232 157.592237,15.2708182 157.592237,15.2708182 C159.993626,14.4090051 160.161556,16.1212121 160.161556,16.2998889 L160.161556,24.481404 C160.161556,25.3875505 158.549434,25.4997273 158.549434,25.4997273 L158.549434,25.8967121 L167.886303,25.8967121 L168.848874,22.2210758 L168.209399,22.2096566 Z M167.090318,14.6783636 L167.090318,15.7638586 C166.989561,15.1149798 165.971237,14.6783636 165.971237,14.6783636 L167.090318,14.6783636 Z M161.439162,25.1893939 L160.452409,25.1893939 C160.588905,24.9783174 160.662526,24.7327602 160.664672,24.481404 L160.664672,15.9089495 C160.640544,15.49126 160.509639,15.086749 160.28448,14.7341162 L161.493571,14.7341162 C161.413494,14.9838446 161.372041,15.2443416 161.370646,15.5065909 L161.370646,23.9890354 C161.349686,24.3904561 161.372661,24.7929654 161.439162,25.1893939 Z M167.359005,25.1893939 L166.052515,25.1893939 C166.687462,24.9416035 167.251221,24.540534 167.69352,24.0219495 L167.359005,25.1893939 Z" id="Shape"></path>
                <polygon id="Shape" points="167.787561 56.2737778 171.090394 56.2737778 172.182606 43.7932727 168.879773 43.7932727"></polygon>
                <path d="M161.014636,46.5204444 C160.741247,50.3989394 159.430056,52.4611111 156.334111,53.9019444 L158.331126,56.4067778 C162.262015,54.3009444 163.897646,51.5704141 164.220742,46.6091111 L164.451813,43.9706061 L161.237646,43.9706061 L161.014636,46.5204444 Z" id="Shape"></path>
                <path d="M168.676242,35.2147727 L167.631051,35.2147727 L167.618288,35.2550758 L167.336167,36.1692828 L166.381657,36.2364545 L166.319859,36.2411566 C165.834879,36.2754141 165.269965,36.3083283 164.656687,36.3452727 C162.49659,39.6208615 159.308284,42.0848746 155.593879,43.3492677 L157.206,45.9877727 C161.370646,44.2809394 164.850813,41.465101 166.811556,38.273101 C168.428603,41.0884916 171.303552,43.5342138 175.436404,45.6102677 L177.354157,42.7064343 C173.107561,40.8229394 170.214923,38.3257189 168.676242,35.2147727 Z" id="Shape"></path>
                <path d="M168.284631,27.4866667 C164.6516,28.0759275 160.990572,28.4772528 157.316162,28.6890404 C151.098076,29.0463939 143.673586,28.7904697 139.237566,28.6379899 C138.665934,28.6185101 138.14804,28.6003737 137.692616,28.5862677 C130.223793,28.3504949 122.895359,27.8218535 122.822141,27.8164798 L122.726086,27.8090909 L122.726086,28.404904 L122.807364,28.4122929 C122.932975,28.4237121 135.430273,29.5589141 140.566894,29.6213838 C141.3125,29.6301162 142.802369,29.7127374 144.688551,29.8168535 C147.943692,29.9975455 152.178197,30.2319747 155.261379,30.2319747 C155.965338,30.2319747 156.609515,30.2198838 157.168384,30.1916717 C161.507677,29.9747071 165.893318,29.5542121 167.817116,29.2673889 L167.872869,29.2593283 L168.427035,27.4665152 L168.284631,27.4866667 Z" id="Shape"></path>
                <path d="M155.823606,31.1005051 C149.023813,30.9238434 138.20648,30.4684192 134.817667,30.2897424 C131.559838,30.1177828 115.703283,28.5204394 115.543414,28.5043182 L115.445343,28.4942424 L115.445343,29.1296869 L115.524606,29.1390909 C115.673727,29.1558838 130.497854,30.8345051 134.807591,31.0998333 C136.118111,31.1811111 138.174237,31.3376212 140.554803,31.5189848 C145.983621,31.9327626 152.702808,32.4446111 155.580444,32.4446111 L155.822263,32.4446111 C156.453005,32.4372222 157.134126,32.4372222 157.856222,32.4378939 C160.915275,32.4834523 163.974583,32.3659591 167.021131,32.0859141 L167.081586,32.0798687 L167.567909,30.3656465 L167.433566,30.3871414 C163.591026,30.9557928 159.706859,31.194452 155.823606,31.1005051 Z" id="Shape"></path>
                <path d="M150.160359,33.1828283 L150.125429,33.1828283 C147.399601,33.0679646 145.020379,32.8590606 142.266338,32.6165707 C140.721389,32.4822273 139.124045,32.3404949 137.264061,32.1980909 C132.179833,31.8084949 116.385747,29.9908283 112.771909,29.3768788 C107.17492,28.596856 101.531935,28.1929201 95.8809091,28.1677879 C90.7886212,28.1677879 83.1921717,28.7884545 83.1182828,28.7951717 L83.0363333,28.8018889 L83.0363333,29.2868687 L83.1290303,29.2835101 C83.4151818,29.2734343 83.9767374,29.2398485 84.7539141,29.1928283 C87.274197,29.0423636 91.9654697,28.7615859 95.897702,28.7615859 C101.510372,28.7988678 107.111996,29.2648276 112.653687,30.155399 C117.593495,31.0178838 131.803672,32.7509141 137.250626,33.2674646 C138.200434,33.3574747 139.396763,33.475697 140.743556,33.6093687 C146.747364,34.2038384 155.820247,35.102596 159.445505,35.102596 C162.052439,35.102596 164.56802,34.9635505 166.219101,34.8473434 L166.280227,34.8426414 L166.869995,32.9349646 L166.730278,32.9551162 C163.396545,33.4273333 157.821293,33.5032374 150.160359,33.1828283 Z" id="Shape"></path>
            </g>
        </g>
    </g>
</svg>